<?xml version="1.0" encoding="UTF-8"?>
<!-- (c) ammap.com | SVG weather icons -->
<svg version="1.1" viewBox="0 0 64 64" viewbox="0 0 64 64" xmlns="http://www.w3.org/2000/svg">
 <defs>
  <filter id="blur" x="-.11713" y="-.12792" width="1.2343" height="1.373">
   <feGaussianBlur in="SourceAlpha" stdDeviation="3"/>
   <feOffset dx="0" dy="4" result="offsetblur"/>
   <feComponentTransfer>
    <feFuncA slope="0.05" type="linear"/>
   </feComponentTransfer>
   <feMerge>
    <feMergeNode/>
    <feMergeNode in="SourceGraphic"/>
   </feMerge>
  </filter>
 </defs>
 <g id="night" filter="url(#blur)">
  <g transform="matrix(2.5937 0 0 2.5937 -2.6265 -.47959)">
   <g class="am-weather-moon-star-1">
    <polygon points="4 4 3.3 5.2 2.7 4 1.5 3.3 2.7 2.7 3.3 1.5 4 2.7 5.2 3.3" fill="#ffa500" stroke-miterlimit="10"/>
   </g>
   <g class="am-weather-moon-star-2">
    <polygon transform="translate(20,10)" points="4 4 3.3 5.2 2.7 4 1.5 3.3 2.7 2.7 3.3 1.5 4 2.7 5.2 3.3" fill="#ffa500" stroke-miterlimit="10"/>
   </g>
   <g class="am-weather-moon">
    <path d="m14.5 13.2c0-3.7 2-6.9 5-8.7-1.5-0.9-3.2-1.3-5-1.3-5.5 0-10 4.5-10 10s4.5 10 10 10c1.8 0 3.5-0.5 5-1.3-3-1.7-5-5-5-8.7z" fill="#ffa500" stroke="#ffa500" stroke-linejoin="round" stroke-width="2"/>
   </g>
  </g>
 </g>
</svg>
