<?xml version="1.0" encoding="UTF-8"?>
<!-- (c) ammap.com | SVG weather icons -->
<svg version="1.1" viewBox="0 0 64 64" viewbox="0 0 64 64" xmlns="http://www.w3.org/2000/svg">
 <defs>
  <filter id="blur" x="-.14366" y="-.18689" width="1.2837" height="1.4735">
   <feGaussianBlur in="SourceAlpha" stdDeviation="3"/>
   <feOffset dx="0" dy="4" result="offsetblur"/>
   <feComponentTransfer>
    <feFuncA slope="0.05" type="linear"/>
   </feComponentTransfer>
   <feMerge>
    <feMergeNode/>
    <feMergeNode in="SourceGraphic"/>
   </feMerge>
  </filter>
 </defs>
 <g id="cloudy" transform="translate(-3.3032)" filter="url(#blur)">
  <g transform="matrix(1.4641 0 0 1.4641 12.93 1.4258)">
   <g class="am-weather-cloud-1" transform="translate(11.188,3.0163)">
    <path d="m23.319 11.71c0-3.5457-2.852-6.3206-6.3206-6.3206-0.7708 0-1.4645 0.15416-2.1582 0.3854-0.23124-2.6207-2.3895-4.779-5.0873-4.779-2.852 0-5.1644 2.3124-5.1644 5.1644 0 0.61664 0.15416 1.2333 0.30832 1.7728-0.23124-0.07707-0.53956-0.07707-0.7708-0.07707-2.852 0-5.1644 2.3124-5.1644 5.1644 0 2.7749 2.2353 5.0873 5.0102 5.1644h13.258c3.3915-0.3854 6.0893-3.0832 6.0893-6.4747z" fill="#156bcb" stroke="#fff" stroke-linejoin="round" stroke-width=".92496"/>
   </g>
   <g class="am-weather-cloud-2">
    <path transform="translate(-20,-11)" d="m47.7 35.4c0-4.6-3.7-8.2-8.2-8.2-1 0-1.9 0.2-2.8 0.5-0.3-3.4-3.1-6.2-6.6-6.2-3.7 0-6.7 3-6.7 6.7 0 0.8 0.2 1.6 0.4 2.3-0.3-0.1-0.7-0.1-1-0.1-3.7 0-6.7 3-6.7 6.7 0 3.6 2.9 6.6 6.5 6.7h17.2c4.4-0.5 7.9-4 7.9-8.4z" fill="#57a0ee" stroke="#fff" stroke-linejoin="round" stroke-width="1.2"/>
   </g>
  </g>
 </g>
</svg>
