<?xml version="1.0" encoding="UTF-8"?>
<!-- (c) ammap.com | SVG weather icons -->
<svg version="1.1" viewBox="0 0 64 64" viewbox="0 0 64 64" xmlns="http://www.w3.org/2000/svg">
 <defs>
  <filter id="blur" x="-.1476" y="-.14134" width="1.2952" height="1.3511">
   <feGaussianBlur in="SourceAlpha" stdDeviation="3"/>
   <feOffset dx="0" dy="4" result="offsetblur"/>
   <feComponentTransfer>
    <feFuncA slope="0.05" type="linear"/>
   </feComponentTransfer>
   <feMerge>
    <feMergeNode/>
    <feMergeNode in="SourceGraphic"/>
   </feMerge>
  </filter>
 </defs>
 <g filter="url(#blur)">
  <g transform="matrix(1.7716 0 0 1.7716 10.918 -15.832)">
   <g class="am-weather-cloud-2">
    <path transform="translate(-20,-11)" d="m47.7 35.4c0-4.6-3.7-8.2-8.2-8.2-1 0-1.9 0.2-2.8 0.5-0.3-3.4-3.1-6.2-6.6-6.2-3.7 0-6.7 3-6.7 6.7 0 0.8 0.2 1.6 0.4 2.3-0.3-0.1-0.7-0.1-1-0.1-3.7 0-6.7 3-6.7 6.7 0 3.6 2.9 6.6 6.5 6.7h17.2c4.4-0.5 7.9-4 7.9-8.4z" fill="#57a0ee" stroke="#fff" stroke-linejoin="round" stroke-width="1.2"/>
   </g>
   <g class="am-weather-snow-1">
    <g transform="translate(7,28)" fill="none" stroke="#57a0ee" stroke-linecap="round">
     <line transform="translate(0,9)" y1="-2.5" y2="2.5" stroke-width="1.2"/>
     <line transform="rotate(45 -10.864 4.5)" y1="-2.5" y2="2.5"/>
     <line transform="rotate(90,-4.5,4.5)" y1="-2.5" y2="2.5"/>
     <line transform="rotate(135 -1.864 4.5)" y1="-2.5" y2="2.5"/>
    </g>
   </g>
   <g class="am-weather-snow-2" transform="translate(0,4)">
    <g transform="translate(16,28)" fill="none" stroke="#57a0ee" stroke-linecap="round">
     <line transform="translate(0,9)" y1="-2.5" y2="2.5" stroke-width="1.2"/>
     <line transform="rotate(45,-10.864,4.5)" y1="-2.5" y2="2.5"/>
     <line transform="rotate(90,-4.5,4.5)" y1="-2.5" y2="2.5"/>
     <line transform="rotate(135,-1.864,4.5)" y1="-2.5" y2="2.5"/>
    </g>
   </g>
  </g>
 </g>
</svg>
